<svg width="256" height="256" viewBox="0 0 256 256" fill="none" xmlns="http://www.w3.org/2000/svg">
<path d="M210.35 129.36C209.54 128.89 208.65 128.44 207.73 128C208.65 127.56 209.54 127.11 210.35 126.64C214.936 124.033 218.961 120.544 222.193 116.375C225.425 112.206 227.8 107.439 229.183 102.348C230.565 97.2567 230.926 91.9427 230.246 86.7115C229.566 81.4803 227.858 76.4353 225.221 71.8668C222.583 67.2984 219.068 63.2968 214.877 60.0925C210.687 56.8882 205.904 54.5443 200.804 53.196C195.704 51.8476 190.388 51.5214 185.161 52.236C179.935 52.9507 174.901 54.692 170.35 57.36C169.54 57.83 168.7 58.36 167.87 58.95C167.95 57.95 168 56.95 168 55.95C168 45.3413 163.786 35.1671 156.284 27.6657C148.783 20.1642 138.609 15.95 128 15.95C117.392 15.95 107.217 20.1642 99.7159 27.6657C92.2145 35.1671 88.0002 45.3413 88.0002 55.95C88.0002 56.89 88.0002 57.89 88.1302 58.95C87.3002 58.38 86.4602 57.83 85.6502 57.36C81.0994 54.692 76.0658 52.9507 70.8392 52.236C65.6126 51.5214 60.2963 51.8476 55.1963 53.196C50.0964 54.5443 45.3135 56.8882 41.123 60.0925C36.9326 63.2968 33.4173 67.2984 30.7796 71.8668C28.142 76.4353 26.434 81.4803 25.7541 86.7115C25.0741 91.9427 25.4356 97.2567 26.8178 102.348C28.1999 107.439 30.5754 112.206 33.8075 116.375C37.0396 120.544 41.0644 124.033 45.6502 126.64C46.4602 127.11 47.3502 127.56 48.2702 128C47.3502 128.44 46.4602 128.89 45.6502 129.36C41.0644 131.967 37.0396 135.456 33.8075 139.625C30.5754 143.794 28.1999 148.561 26.8178 153.652C25.4356 158.743 25.0741 164.057 25.7541 169.288C26.434 174.52 28.142 179.565 30.7796 184.133C33.4173 188.701 36.9326 192.703 41.123 195.907C45.3135 199.112 50.0964 201.456 55.1963 202.804C60.2963 204.152 65.6126 204.479 70.8392 203.764C76.0658 203.049 81.0994 201.308 85.6502 198.64C86.4602 198.17 87.3002 197.64 88.1302 197.05C88.0502 198.05 88.0002 199.05 88.0002 200C88.0002 210.609 92.2145 220.783 99.7159 228.284C107.217 235.786 117.392 240 128 240C138.609 240 148.783 235.786 156.284 228.284C163.786 220.783 168 210.609 168 200C168 199.06 167.95 198.06 167.87 197.05C168.7 197.62 169.54 198.17 170.35 198.64C176.41 202.15 183.288 203.999 190.29 204C193.809 203.996 197.312 203.532 200.71 202.62C208.352 200.572 215.215 196.304 220.431 190.355C225.647 184.406 228.981 177.045 230.013 169.201C231.045 161.357 229.728 153.383 226.228 146.288C222.728 139.193 217.202 133.295 210.35 129.34V129.36ZM128 156C122.462 156 117.049 154.358 112.444 151.281C107.84 148.204 104.251 143.831 102.132 138.715C100.012 133.599 99.4578 127.969 100.538 122.537C101.619 117.106 104.285 112.117 108.201 108.201C112.117 104.285 117.106 101.618 122.538 100.538C127.969 99.4576 133.599 100.012 138.715 102.131C143.832 104.251 148.205 107.839 151.281 112.444C154.358 117.049 156 122.462 156 128C156 135.426 153.05 142.548 147.799 147.799C142.548 153.05 135.426 156 128 156Z" fill="black"/>
</svg>
